<mxfile host="65bd71144e">
    <diagram name="Page-1" id="uBxqd6GrxpzfCvBgXkhz">
        <mxGraphModel dx="1120" dy="1887" grid="0" gridSize="10" guides="1" tooltips="1" connect="1" arrows="1" fold="1" page="1" pageScale="1" pageWidth="850" pageHeight="1100" math="0" shadow="0">
            <root>
                <mxCell id="0"/>
                <mxCell id="1" parent="0"/>
                <mxCell id="Lq6lp6dJxef_DIdV1jhX-25" value="Процесс развертывания&lt;div&gt;&lt;br&gt;&lt;/div&gt;" style="rounded=0;whiteSpace=wrap;html=1;" parent="1" vertex="1">
                    <mxGeometry x="230" y="-140" width="440" height="170" as="geometry"/>
                </mxCell>
                <mxCell id="Lq6lp6dJxef_DIdV1jhX-37" style="edgeStyle=orthogonalEdgeStyle;rounded=0;orthogonalLoop=1;jettySize=auto;html=1;endArrow=none;endFill=0;" parent="1" source="Lq6lp6dJxef_DIdV1jhX-1" target="Lq6lp6dJxef_DIdV1jhX-10" edge="1">
                    <mxGeometry relative="1" as="geometry"/>
                </mxCell>
                <mxCell id="2" style="edgeStyle=none;html=1;endArrow=none;endFill=0;" edge="1" parent="1" source="Lq6lp6dJxef_DIdV1jhX-1" target="Lq6lp6dJxef_DIdV1jhX-11">
                    <mxGeometry relative="1" as="geometry"/>
                </mxCell>
                <mxCell id="Lq6lp6dJxef_DIdV1jhX-1" value="Тестировщик&lt;div&gt;&lt;br&gt;&lt;/div&gt;" style="shape=umlActor;verticalLabelPosition=bottom;verticalAlign=top;html=1;outlineConnect=0;" parent="1" vertex="1">
                    <mxGeometry x="435" y="270" width="30" height="60" as="geometry"/>
                </mxCell>
                <mxCell id="Lq6lp6dJxef_DIdV1jhX-38" style="edgeStyle=orthogonalEdgeStyle;rounded=0;orthogonalLoop=1;jettySize=auto;html=1;exitX=0.5;exitY=0;exitDx=0;exitDy=0;endArrow=none;endFill=0;entryX=0.5;entryY=1;entryDx=0;entryDy=0;" parent="1" source="Lq6lp6dJxef_DIdV1jhX-10" target="Lq6lp6dJxef_DIdV1jhX-28" edge="1">
                    <mxGeometry relative="1" as="geometry">
                        <mxPoint x="450" y="150" as="targetPoint"/>
                    </mxGeometry>
                </mxCell>
                <mxCell id="Lq6lp6dJxef_DIdV1jhX-10" value="Тестирование&lt;div&gt;&lt;br&gt;&lt;/div&gt;" style="ellipse;whiteSpace=wrap;html=1;" parent="1" vertex="1">
                    <mxGeometry x="560" y="160" width="120" height="80" as="geometry"/>
                </mxCell>
                <mxCell id="Lq6lp6dJxef_DIdV1jhX-41" style="edgeStyle=orthogonalEdgeStyle;rounded=0;orthogonalLoop=1;jettySize=auto;html=1;" parent="1" source="Lq6lp6dJxef_DIdV1jhX-11" target="Lq6lp6dJxef_DIdV1jhX-20" edge="1">
                    <mxGeometry relative="1" as="geometry"/>
                </mxCell>
                <mxCell id="Lq6lp6dJxef_DIdV1jhX-11" value="Разработчик&lt;div&gt;&lt;br&gt;&lt;/div&gt;" style="shape=umlActor;verticalLabelPosition=bottom;verticalAlign=top;html=1;outlineConnect=0;" parent="1" vertex="1">
                    <mxGeometry x="170" y="500" width="30" height="60" as="geometry"/>
                </mxCell>
                <mxCell id="Lq6lp6dJxef_DIdV1jhX-12" value="Drvops&lt;div&gt;&lt;br&gt;&lt;/div&gt;" style="shape=umlActor;verticalLabelPosition=bottom;verticalAlign=top;html=1;outlineConnect=0;" parent="1" vertex="1">
                    <mxGeometry x="160" y="180" width="30" height="60" as="geometry"/>
                </mxCell>
                <mxCell id="Lq6lp6dJxef_DIdV1jhX-39" style="edgeStyle=orthogonalEdgeStyle;rounded=0;orthogonalLoop=1;jettySize=auto;html=1;exitX=0.5;exitY=0;exitDx=0;exitDy=0;entryX=1;entryY=1;entryDx=0;entryDy=0;entryPerimeter=0;" parent="1" source="Lq6lp6dJxef_DIdV1jhX-20" target="Lq6lp6dJxef_DIdV1jhX-12" edge="1">
                    <mxGeometry relative="1" as="geometry">
                        <mxPoint x="480" y="400" as="targetPoint"/>
                    </mxGeometry>
                </mxCell>
                <mxCell id="Lq6lp6dJxef_DIdV1jhX-20" value="Новый продукт&lt;div&gt;&lt;br&gt;&lt;/div&gt;" style="ellipse;whiteSpace=wrap;html=1;" parent="1" vertex="1">
                    <mxGeometry x="110" y="370" width="120" height="80" as="geometry"/>
                </mxCell>
                <mxCell id="Lq6lp6dJxef_DIdV1jhX-22" value="&lt;div&gt;Backend&amp;nbsp;&lt;/div&gt;&lt;div&gt;&lt;br&gt;&lt;/div&gt;" style="ellipse;whiteSpace=wrap;html=1;" parent="1" vertex="1">
                    <mxGeometry x="550" y="-140" width="120" height="80" as="geometry"/>
                </mxCell>
                <mxCell id="Lq6lp6dJxef_DIdV1jhX-26" value="Frontend&lt;div&gt;&lt;span style=&quot;color: rgba(0, 0, 0, 0); font-family: monospace; font-size: 0px; text-align: start; text-wrap-mode: nowrap;&quot;&gt;%3CmxGraphModel%3E%3Croot%3E%3CmxCell%20id%3D%220%22%2F%3E%3CmxCell%20id%3D%221%22%20parent%3D%220%22%2F%3E%3CmxCell%20id%3D%222%22%20style%3D%22edgeStyle%3DorthogonalEdgeStyle%3Brounded%3D0%3BorthogonalLoop%3D1%3BjettySize%3Dauto%3Bhtml%3D1%3BexitX%3D0.75%3BexitY%3D0.1%3BexitDx%3D0%3BexitDy%3D0%3BexitPerimeter%3D0%3B%22%20edge%3D%221%22%20parent%3D%221%22%3E%3CmxGeometry%20relative%3D%221%22%20as%3D%22geometry%22%3E%3CmxPoint%20x%3D%22410%22%20y%3D%22360%22%20as%3D%22targetPoint%22%2F%3E%3CmxPoint%20x%3D%22153%22%20y%3D%22136%22%20as%3D%22sourcePoint%22%2F%3E%3C%2FmxGeometry%3E%3C%2FmxCell%3E%3C%2Froot%3E%3C%2FmxGraphModel%3E&lt;/span&gt;&lt;/div&gt;" style="ellipse;whiteSpace=wrap;html=1;" parent="1" vertex="1">
                    <mxGeometry x="255" y="-60" width="120" height="80" as="geometry"/>
                </mxCell>
                <mxCell id="Lq6lp6dJxef_DIdV1jhX-28" value="База данных&lt;div&gt;&lt;br&gt;&lt;/div&gt;" style="ellipse;whiteSpace=wrap;html=1;" parent="1" vertex="1">
                    <mxGeometry x="550" y="-60" width="120" height="80" as="geometry"/>
                </mxCell>
                <mxCell id="Lq6lp6dJxef_DIdV1jhX-30" value="Модель&lt;div&gt;&lt;br&gt;&lt;/div&gt;" style="ellipse;whiteSpace=wrap;html=1;" parent="1" vertex="1">
                    <mxGeometry x="250" y="-140" width="120" height="80" as="geometry"/>
                </mxCell>
                <mxCell id="Lq6lp6dJxef_DIdV1jhX-34" value="" style="endArrow=none;html=1;rounded=0;entryX=0.5;entryY=1;entryDx=0;entryDy=0;exitX=0.5;exitY=0;exitDx=0;exitDy=0;exitPerimeter=0;" parent="1" source="Lq6lp6dJxef_DIdV1jhX-12" target="Lq6lp6dJxef_DIdV1jhX-25" edge="1">
                    <mxGeometry width="50" height="50" relative="1" as="geometry">
                        <mxPoint x="390" y="240" as="sourcePoint"/>
                        <mxPoint x="440" y="190" as="targetPoint"/>
                    </mxGeometry>
                </mxCell>
            </root>
        </mxGraphModel>
    </diagram>
</mxfile>